<svg xmlns="http://www.w3.org/2000/svg" width="100%" height="100%" viewBox="0 0 30 40">
  <path fill="#0a2e36" id="Path_5" data-name="Path 5" d="M362,56h26a2.051,2.051,0,0,1,2,2V80l-.2.95-.4.5A2.007,2.007,0,0,1,388,82H362a2.07,2.07,0,0,1-1.45-.55l-.35-.5L360,80V58.05a2.07,2.07,0,0,1,.55-1.45A1.975,1.975,0,0,1,362,56m0,28h26a2.051,2.051,0,0,1,2,2v8a1.976,1.976,0,0,1-.6,1.45A2.007,2.007,0,0,1,388,96H362a1.89,1.89,0,0,1-2-2V86.05a2.07,2.07,0,0,1,.55-1.45A1.975,1.975,0,0,1,362,84m19,4v4h4V88h-4M364,60V76h22V60H364" transform="translate(-360 -56)"/>
</svg>
