<svg xmlns="http://www.w3.org/2000/svg" width="100%" height="100%" viewBox="0 0 40.95 28">
  <path fill="#0a2e36" id="Path_2" data-name="Path 2" d="M733.5,66l.4-.5a4.514,4.514,0,0,1,3.3-1.4,4.571,4.571,0,0,1,3.35,1.4,4.657,4.657,0,0,1,1.35,3.35,4.6,4.6,0,0,1-1.35,3.3,9.114,9.114,0,0,1,5.4,8.25v.05q0,1.95-2.55,3.25a10.906,10.906,0,0,1-3.85,1.25v-.2A13.688,13.688,0,0,0,735.4,74.7v-.05l-2.05-1.7.3-.7.2-.1-.15-.1a8.962,8.962,0,0,0,.4-2.65,9.343,9.343,0,0,0-.6-3.4m-2.6,8.2a12.562,12.562,0,0,1,2.85,2.15,11.54,11.54,0,0,1,3.45,8.4v.35q-.2,2.4-3.45,4.1A17.438,17.438,0,0,1,725.5,91a17.742,17.742,0,0,1-8.3-1.8q-3.2-1.7-3.4-4.1v-.35a11.627,11.627,0,0,1,3.4-8.4,14.224,14.224,0,0,1,2.85-2.15l.95-.45a6.013,6.013,0,0,1-1.75-4.35,6.125,6.125,0,0,1,1.85-4.5,5.829,5.829,0,0,1,4.4-1.9,5.988,5.988,0,0,1,4.45,1.9,6.213,6.213,0,0,1,1.8,4.5A6.013,6.013,0,0,1,730,73.75l.9.45M717.55,66a8.706,8.706,0,0,0-.65,3.4,8.479,8.479,0,0,0,.4,2.6l-.15.15.25.15.25.65a14.234,14.234,0,0,0-2.05,1.7v.05a13.688,13.688,0,0,0-4.15,10.05v.2a10.906,10.906,0,0,1-3.85-1.25q-2.55-1.3-2.6-3.25V80.4a8.522,8.522,0,0,1,2.6-6.25,7.925,7.925,0,0,1,2.85-2,4.6,4.6,0,0,1-1.35-3.3,4.657,4.657,0,0,1,1.35-3.35,4.708,4.708,0,0,1,6.7,0l.4.5" transform="translate(-705 -63)"/>
</svg>
